# xmcd
#
# Track frame offsets:
#	183
#	10495
#	23923
#	35135
#	47553
#	60558
#	76065
#	87245
#	98033
#	109925
#
# Disc length: 1626 seconds
#
# Revision: 0
# Processed by: cddbd v1.4PL0 Copyright (c) Steve Scherf et al.
# Submitted via: EasyCDDAExtractor 4.6.9.1
#
DISCID=7506580a
DTITLE=Don williams - Gold
DYEAR=1900
DGENRE=Country
TTITLE0=Take My Hand For A While
TTITLE1=Ruby Tuesday
TTITLE2=Ther's Always Something There To Remind Me
TTITLE3=There's Never Been A Time
TTITLE4=Where Do We Go From Here
TTITLE5=Tears
TTITLE6=Storybook Children
TTITLE7=Spend Some Time With Me
TTITLE8=Follow Me Back To Louisville
TTITLE9=Comin' Apart
EXTD=Gold 135\n
EXTT0=(Williams]\n
EXTT1=(Jagger/Richards]\n
EXTT2=(David/Bacharachi]\n
EXTT3=(Williams]\n
EXTT4=(Davidson]\n
EXTT5=(Williams]\n
EXTT6=(Taylor/Vera]\n
EXTT7=(Williams]\n
EXTT8=(Davidson]\n
EXTT9=Weatherly]\n
PLAYORDER=
